<svg id="Capa_1" data-name="Capa 1" xmlns="http://www.w3.org/2000/svg" viewBox="0 0 1136.36 1136.36"><defs><style>.cls-1{fill:#fff;}</style></defs><circle class="cls-1" cx="568.18" cy="568.18" r="568.18"/><path d="M1244.6,2035.89v-792h317.82q99.06,0,144.46,63.25t45.41,144.48q0,59.19-26.37,107.05t-78.66,65.86q121.53,37.14,121.54,184.52,0,88.21-42.88,157.54t-183.22,69.34Zm177-488.57h89q33.47,0,47.23-21.47a83.4,83.4,0,0,0,13.76-45.84q0-66.15-64.2-66.15h-85.77Zm0,312.17h93.56q34.86,0,51.14-21.76a79.78,79.78,0,0,0,16.28-49,86.5,86.5,0,0,0-15.82-50.19q-15.83-22.92-58-22.92h-87.14Z" transform="translate(-900.36 -1077.64)"/></svg>