<?xml version="1.0" standalone="no"?>
<!DOCTYPE svg PUBLIC "-//W3C//DTD SVG 20010904//EN"
 "http://www.w3.org/TR/2001/REC-SVG-20010904/DTD/svg10.dtd">
<svg version="1.0" xmlns="http://www.w3.org/2000/svg"
 width="3444.000000pt" height="3444.000000pt" viewBox="0 0 3444.000000 3444.000000"
 preserveAspectRatio="xMidYMid meet">
<metadata>
Created by potrace 1.14, written by Peter Selinger 2001-2017
</metadata>
<g transform="translate(0.000000,3444.000000) scale(0.100000,-0.100000)"
fill="#000000" stroke="none">
<path d="M16718 34435 c-2 -2 -74 -6 -160 -9 -158 -6 -248 -11 -388 -21 -41
-3 -106 -8 -145 -10 -38 -3 -95 -7 -125 -10 -30 -2 -86 -7 -125 -11 -38 -3
-81 -7 -95 -9 -14 -2 -59 -6 -100 -10 -41 -4 -86 -8 -100 -10 -14 -2 -50 -7
-80 -10 -88 -10 -122 -14 -165 -19 -22 -3 -60 -8 -85 -11 -85 -11 -179 -24
-211 -30 -9 -2 -40 -6 -70 -10 -30 -4 -56 -8 -59 -10 -3 -1 -32 -6 -65 -10
-32 -3 -62 -8 -65 -10 -3 -2 -26 -6 -50 -9 -37 -4 -212 -35 -295 -51 -11 -2
-56 -11 -100 -19 -44 -9 -91 -18 -105 -21 -14 -2 -36 -7 -50 -10 -14 -3 -36
-8 -50 -10 -85 -18 -127 -27 -230 -50 -63 -14 -126 -28 -139 -31 -13 -3 -51
-12 -85 -20 -34 -8 -72 -17 -86 -20 -28 -6 -237 -60 -405 -105 -290 -78 -895
-268 -1120 -351 -44 -16 -102 -38 -130 -48 -188 -69 -437 -165 -470 -180 -11
-5 -60 -25 -110 -45 -49 -20 -103 -42 -120 -50 -16 -7 -46 -20 -66 -29 -259
-111 -267 -115 -544 -244 -291 -135 -968 -491 -1155 -607 -19 -12 -42 -24 -50
-28 -80 -35 -959 -597 -968 -619 -2 -5 -10 -8 -17 -8 -7 0 -15 -3 -17 -8 -1
-4 -28 -24 -58 -44 -104 -71 -421 -302 -535 -390 -5 -5 -59 -47 -120 -94 -60
-46 -123 -96 -140 -109 -16 -13 -43 -34 -59 -47 -54 -43 -211 -172 -222 -183
-6 -5 -33 -28 -60 -50 -63 -52 -251 -215 -287 -249 -15 -14 -30 -26 -32 -26
-2 0 -19 -15 -38 -32 -18 -18 -55 -53 -82 -77 -280 -250 -709 -678 -1045
-1042 -493 -534 -1056 -1253 -1460 -1864 -61 -93 -120 -181 -129 -195 -60 -85
-371 -595 -371 -607 0 -4 -6 -14 -14 -22 -7 -9 -28 -43 -46 -76 -17 -33 -35
-64 -40 -70 -4 -5 -23 -39 -42 -75 -20 -36 -72 -132 -117 -214 -112 -204 -347
-674 -443 -886 -44 -96 -84 -180 -90 -187 -6 -7 -8 -13 -5 -13 3 0 -8 -30 -25
-67 -59 -133 -66 -149 -113 -263 -26 -63 -53 -128 -60 -145 -116 -272 -381
-1024 -481 -1365 -54 -187 -105 -363 -109 -380 -2 -8 -13 -51 -24 -95 -12 -44
-23 -87 -25 -95 -2 -8 -9 -35 -16 -60 -7 -25 -13 -52 -15 -60 -2 -8 -15 -61
-29 -116 -20 -81 -80 -345 -102 -449 -2 -11 -6 -31 -9 -45 -17 -81 -65 -327
-71 -365 -3 -16 -11 -64 -19 -105 -12 -62 -37 -212 -61 -365 -2 -16 -6 -41 -9
-55 -2 -14 -7 -49 -10 -79 -4 -30 -8 -61 -10 -70 -1 -9 -6 -38 -9 -66 -4 -27
-9 -63 -11 -80 -2 -16 -7 -52 -10 -80 -3 -27 -7 -66 -10 -85 -3 -19 -7 -57
-10 -85 -6 -52 -9 -74 -19 -185 -4 -36 -8 -85 -11 -110 -13 -133 -29 -332 -40
-500 -34 -523 -38 -1304 -10 -1785 2 -44 7 -125 10 -180 3 -55 7 -125 9 -155
3 -30 8 -90 11 -133 3 -43 8 -95 10 -115 2 -20 6 -73 10 -117 3 -44 8 -93 10
-110 2 -16 7 -57 10 -90 3 -33 8 -73 10 -90 2 -16 9 -73 15 -125 6 -52 13
-107 16 -121 2 -15 6 -47 9 -70 13 -99 15 -116 21 -159 4 -25 8 -54 10 -65 2
-10 6 -37 9 -60 3 -22 8 -51 10 -65 7 -36 14 -82 20 -121 2 -19 7 -47 10 -64
3 -16 10 -57 16 -90 6 -33 17 -94 24 -135 8 -41 17 -86 19 -100 12 -68 104
-508 112 -532 3 -10 7 -30 10 -44 3 -15 12 -54 20 -88 8 -34 17 -70 19 -81 13
-56 89 -349 107 -410 11 -38 22 -81 25 -95 2 -14 7 -32 10 -40 3 -8 7 -22 9
-30 9 -45 156 -517 221 -710 112 -334 314 -870 409 -1085 10 -22 18 -42 19
-45 0 -3 11 -27 23 -54 12 -27 22 -50 22 -52 0 -2 11 -27 24 -56 13 -29 58
-129 101 -223 60 -132 328 -681 374 -765 4 -8 13 -25 20 -38 12 -24 48 -89 98
-182 17 -30 45 -82 63 -115 18 -33 40 -71 49 -85 8 -14 21 -34 27 -45 10 -19
38 -69 82 -147 12 -20 60 -101 108 -180 48 -79 99 -163 113 -186 14 -24 33
-54 41 -67 8 -13 34 -54 58 -92 101 -162 363 -549 479 -708 161 -222 212 -291
232 -314 12 -13 21 -27 21 -30 0 -3 10 -17 22 -31 13 -14 52 -63 88 -110 94
-124 298 -376 424 -525 106 -125 131 -153 191 -220 15 -16 48 -54 74 -84 25
-29 60 -68 76 -86 17 -18 73 -79 125 -135 52 -57 115 -125 140 -150 25 -26 73
-76 106 -111 84 -87 495 -490 575 -564 492 -451 946 -828 1371 -1137 13 -9 52
-38 88 -65 88 -66 348 -248 440 -308 41 -28 77 -52 80 -55 6 -6 119 -81 143
-95 9 -5 88 -55 175 -111 86 -56 171 -109 187 -118 17 -9 50 -30 75 -45 44
-29 414 -245 457 -268 12 -6 66 -36 120 -66 54 -30 134 -74 178 -97 99 -54
604 -310 608 -308 1 0 20 -8 42 -19 22 -12 110 -52 195 -91 85 -38 180 -81
210 -95 30 -14 154 -66 275 -116 121 -50 229 -96 240 -100 50 -23 351 -136
540 -203 152 -54 431 -148 455 -153 8 -2 51 -15 95 -30 136 -45 619 -185 688
-199 12 -3 63 -16 112 -29 50 -14 151 -39 225 -56 74 -17 160 -38 190 -46 30
-8 69 -17 85 -19 17 -3 91 -19 165 -35 74 -16 151 -32 170 -35 19 -3 80 -14
135 -25 55 -11 116 -23 135 -26 19 -3 42 -8 50 -10 8 -2 31 -6 50 -9 19 -3 94
-15 165 -26 72 -12 141 -23 155 -25 96 -14 118 -17 140 -20 14 -2 45 -6 70
-10 80 -12 94 -14 150 -20 30 -3 62 -8 70 -10 8 -2 51 -7 95 -10 44 -4 82 -8
85 -10 3 -1 43 -6 90 -10 47 -4 94 -9 105 -11 11 -2 54 -6 95 -10 41 -3 86 -7
100 -9 14 -2 70 -6 125 -10 55 -3 116 -8 135 -10 32 -4 113 -9 325 -20 622
-33 1484 -20 2050 30 28 2 84 7 125 10 147 12 395 38 480 50 14 2 54 7 90 10
36 4 74 9 85 11 11 2 43 7 70 10 28 3 59 7 70 9 11 1 73 10 137 19 65 10 126
19 136 21 25 4 82 14 130 20 20 3 48 8 62 11 58 11 69 13 106 18 22 4 111 20
199 37 88 17 171 33 185 35 14 3 117 25 230 50 113 25 212 47 220 49 8 1 35 8
60 15 25 7 54 14 65 16 143 27 687 179 1035 288 351 110 1015 350 1205 436 11
5 97 41 190 81 94 39 193 81 220 94 28 12 82 37 120 55 39 17 106 48 150 68
108 49 647 319 765 383 178 96 385 212 412 230 14 11 29 19 32 19 10 0 366
215 581 350 543 343 1328 924 1770 1311 17 15 91 80 165 144 74 65 140 123
146 129 6 6 56 52 110 101 302 276 704 680 985 989 30 33 61 67 69 75 18 19
206 233 241 275 13 16 29 34 34 40 6 6 44 52 85 101 41 50 77 92 80 95 3 3 24
28 45 55 22 28 42 52 45 55 7 7 150 187 175 221 11 14 56 73 100 130 44 57
113 149 153 204 40 55 78 107 85 115 53 65 371 531 509 745 90 140 288 464
351 575 10 19 45 80 77 135 277 483 605 1147 805 1630 20 50 43 104 50 120 28
65 35 82 60 145 117 293 364 974 380 1052 2 9 24 83 50 165 61 195 65 207 70
229 3 10 25 91 50 179 25 88 47 169 49 180 3 11 15 56 27 100 21 77 26 99 48
195 6 25 16 63 21 85 6 22 13 49 15 60 2 11 7 31 10 45 3 14 8 34 10 45 9 38
15 65 19 83 7 24 67 312 72 342 3 14 11 57 19 95 8 39 25 135 39 215 15 80 28
155 30 167 3 11 8 43 12 70 3 26 8 57 10 68 5 24 41 274 49 335 3 25 8 56 10
70 2 14 6 48 10 75 3 28 8 61 10 75 2 14 6 52 10 85 3 33 8 76 10 95 2 19 6
61 9 93 3 31 8 81 11 110 11 104 14 133 20 217 3 47 8 103 10 125 49 541 54
1616 11 2230 -15 214 -28 371 -41 490 -2 22 -7 67 -10 100 -11 120 -33 311
-40 345 -2 14 -7 48 -10 75 -6 60 -16 134 -20 156 -2 9 -6 40 -10 69 -4 29 -9
62 -11 74 -2 12 -6 41 -9 66 -3 25 -8 56 -11 70 -3 14 -8 41 -10 60 -2 19 -9
58 -14 85 -5 28 -12 66 -15 85 -3 19 -13 73 -21 120 -9 47 -18 96 -20 110 -3
14 -12 59 -21 100 -8 41 -17 84 -19 95 -45 235 -165 740 -226 955 -16 58 -32
114 -34 125 -3 11 -6 25 -8 30 -101 371 -271 883 -448 1355 -5 14 -8 25 -7 25
1 0 -7 18 -18 40 -12 22 -22 45 -23 50 -5 21 -83 220 -113 287 -8 18 -47 107
-85 198 -39 91 -89 206 -112 255 -22 50 -53 117 -68 150 -15 33 -95 197 -179
365 -189 379 -248 489 -423 795 -57 99 -115 199 -129 223 -14 24 -30 51 -36
60 -160 269 -458 726 -651 997 -51 72 -250 345 -268 366 -11 15 -30 39 -41 54
-68 95 -409 521 -532 664 -84 98 -250 289 -288 331 -219 241 -300 326 -590
615 -260 261 -447 441 -551 532 -18 15 -141 125 -178 158 -6 6 -42 37 -81 70
-38 33 -74 65 -80 71 -5 6 -50 44 -100 85 -49 40 -92 76 -95 79 -5 7 -340 275
-400 320 -204 155 -277 211 -285 218 -20 17 -394 281 -500 353 -318 217 -859
553 -1095 680 -25 13 -47 27 -50 30 -3 3 -43 26 -90 51 -47 25 -105 57 -130
70 -346 190 -898 456 -1325 637 -11 5 -36 16 -55 24 -19 9 -60 25 -90 37 -30
12 -68 27 -85 35 -180 78 -646 250 -955 352 -229 75 -660 207 -752 229 -43 10
-268 70 -318 84 -30 9 -266 66 -310 75 -8 2 -87 19 -175 39 -88 19 -196 42
-240 51 -44 9 -87 18 -95 20 -28 6 -185 34 -220 40 -19 3 -66 12 -105 20 -38
7 -88 16 -110 20 -51 8 -289 44 -335 50 -19 3 -46 7 -60 10 -14 2 -47 6 -75
10 -27 3 -63 8 -80 10 -86 13 -269 35 -330 40 -38 3 -83 8 -100 10 -16 2 -57
7 -90 10 -33 3 -80 8 -105 11 -44 4 -71 7 -250 19 -47 3 -105 8 -130 10 -25 2
-103 7 -175 10 -71 4 -164 9 -205 12 -80 5 -1177 12 -1182 8z"/>
</g>
</svg>
