<svg id="Capa_1" data-name="Capa 1" xmlns="http://www.w3.org/2000/svg" viewBox="0 0 1151.35 398.35"><defs><style>.cls-1{fill:#a08e81;}.cls-2{fill:#010101;}.cls-3{fill:#030303;}.cls-4{fill:#fff;}.cls-5{fill:#fefefe;}</style></defs><path d="M1573.49,1942.71c2.25.82,4.48,1.59,6.67,2.46,26.93,10.68,43.59,30.42,49.36,58.55,7.55,36.79,2.81,72.1-15.4,105.33-7.38,13.47-18.25,22.82-32.22,28.83-13.22,5.69-27.16,8.23-41.38,9.5-9.08.8-18.2.89-27.31.88q-68.61-.08-137.22,0c-5.78,0-5.19.64-5.19-5.05q0-192.85,0-385.7c0-5.8-.62-5.24,5-5.24,52.13,0,104.27-.09,156.4,0,15.16,0,29.89,2.63,43.65,9.44a69.13,69.13,0,0,1,25.76,21.74c16.84,23.3,23.92,49.46,22.81,78a108,108,0,0,1-12.1,46.43c-7.92,15.16-19.65,26.2-35.5,32.81C1575.67,1941.22,1574.3,1941.35,1573.49,1942.71Z" transform="translate(-1370.78 -1749.91)"/><path d="M1807.61,1916.32h-11c-13.91,0-27.82-.08-41.73.08-2.74,0-3.88-.89-4.81-3.36-7.06-18.83-14.27-37.6-21.44-56.38-1.51-4-1.52-4-5.69-4-3,0-6.08.12-9.11,0-2.15-.12-2.71.7-2.67,2.74.1,6.56,0,13.11,0,19.67q0,18.7,0,37.42c0,3.86.34,3.88-4,3.87-14.55,0-29.1,0-43.65,0-3.84,0-3.88,0-3.88-3.93q0-53.72,0-107.45,0-25.42,0-50.85c0-4,0-4.07,3.73-4.07q43.89,0,87.79,0a67.84,67.84,0,0,1,28,5.67c17.79,8,27.68,21.54,28.35,41.34a63.79,63.79,0,0,1-1.49,16.18c-2.84,12.57-10.55,21.24-21.62,27.27-2,1.06-4.72,1.79-5.53,3.45-1,2,1.19,4.39,2.08,6.55q12.66,30.78,25.43,61.5C1807,1913.28,1807.91,1914.49,1807.61,1916.32Z" transform="translate(-1370.78 -1749.91)"/><path d="M2291.93,1916.32h-26.14c-8.63,0-17.27-.13-25.9.07-3,.07-4.45-.77-5.71-3.58-8.09-18.07-16.42-36-24.67-54-.66-1.44-1.37-2.87-2.11-4.42-1.49.36-1.88,1.67-2.54,2.59-4.1,5.72-8,11.56-12.23,17.19a12.85,12.85,0,0,0-2.71,8.38c.16,9.75.07,19.51.06,29.26,0,4.43.69,4.55-4.27,4.54q-19.92,0-39.83,0c-5,0-4.26-.14-4.26-4.55V1789c0-11.84,0-23.67,0-35.51,0-3.37.07-3.43,3.42-3.44q20.64,0,41.27,0c3.6,0,3.65.06,3.65,3.69q0,29.27,0,58.53c0,1.53-.32,3.12.6,5.2,1-1.42,1.77-2.51,2.52-3.63,13.31-19.93,26.7-39.81,39.82-59.87,2-3.13,4.17-4.07,7.73-4,13.41.2,26.84.08,40.38.08,0,1.93-1.3,3-2.16,4.26-12.06,17.5-24.08,35-36.29,52.42-2.06,2.94-2.46,5.07-.73,8.51,16.31,32.54,32.36,65.22,48.48,97.85C2290.77,1913.88,2291.16,1914.72,2291.93,1916.32Z" transform="translate(-1370.78 -1749.91)"/><path d="M2043.76,1854.39c-1.84.95-2.45,2.48-3.34,3.73-3.9,5.46-7.64,11-11.65,16.41a12.15,12.15,0,0,0-2.59,7.91c.16,10.23,0,20.46.12,30.69,0,2.47-.64,3.27-3.18,3.25-13.59-.12-27.18-.05-40.77-.06-4.89,0-4.23.27-4.24-4.47q0-78.66,0-157.3a9.88,9.88,0,0,0,0-1.44c-.44-2.62.81-3.18,3.21-3.16,12,.1,24,0,36,0,2.24,0,4.48.06,6.72,0,1.59,0,2.39.46,2.26,2.18-.09,1.11,0,2.23,0,3.35v61.87c2-1.13,2.68-2.77,3.58-4.11,13.23-19.79,26.5-39.55,39.57-59.44,1.89-2.87,3.84-4,7.29-3.92,12,.22,24,.09,36,.09H2118c-1.35,2.08-2.22,3.53-3.18,4.92-11.9,17.21-23.72,34.48-35.78,51.58-2.19,3.11-2.45,5.42-.71,8.9,16.21,32.39,32.21,64.89,48.27,97.37.48,1,.9,2,1.31,2.86-1.21,1-2.36.67-3.41.67-16.14,0-32.29-.07-48.44.1-3.08,0-4.44-1.14-5.63-3.77-8.13-18-16.41-36-24.64-54C2045.17,1857.23,2044.47,1855.86,2043.76,1854.39Z" transform="translate(-1370.78 -1749.91)"/><path d="M1832.6,1832.94v-77.23c0-1.11.06-2.24,0-3.35-.09-1.56.44-2.44,2.14-2.37,1,0,1.92,0,2.88,0h115.61c.8,0,1.6.06,2.39,0,1.8-.17,2.54.46,2.53,2.4q-.11,16.78,0,33.57c0,1.91-.77,2.46-2.57,2.44-5.75-.07-11.51,0-17.27,0q-25.9,0-51.8,0c-3.41,0-3.45.06-3.47,3.29q-.06,8.64,0,17.27c0,3.36.07,3.42,3.42,3.42q25.41,0,50.84,0a25.1,25.1,0,0,0,3.36,0c2.65-.37,3.14.9,3.12,3.27-.11,10.08,0,20.15-.06,30.22,0,3.24-.07,3.3-3.48,3.3q-25.9,0-51.81,0c-1.12,0-2.24,0-3.36,0-1.4-.06-2,.53-2,1.95,0,7.83,0,15.67,0,23.5,0,1.75.86,2.12,2.39,2.1,3.84-.07,7.68,0,11.52,0h57.56c3.64,0,3.66-.34,3.64,3.65,0,10.87,0,21.75,0,32.62,0,3.32-.06,3.38-3.39,3.38q-59.25,0-118.49,0c-3.55,0-3.6-.07-3.6-3.74Q1832.58,1872.75,1832.6,1832.94Z" transform="translate(-1370.78 -1749.91)"/><path d="M2386,1833v-77.72c0-1.12.05-2.24,0-3.35-.08-1.49.67-2,2-1.91,1,0,1.92,0,2.88,0h116.58c4,0,4,0,4,3.82q0,15.35,0,30.7c0,3.8-.06,3.84-4,3.85-21.74,0-43.49,0-65.24,0-7.24,0-6-.9-6.08,6-.06,4.15,0,8.31,0,12.47,0,6.08-.73,5.47,5.26,5.47q24.95,0,49.89,0c5.82,0,5.82,0,5.82,5.87,0,8.47,0,17,0,25.42,0,6.2.87,5.47-5.71,5.48q-24.95,0-49.89,0c-1.12,0-2.24,0-3.36,0-1.4,0-2,.64-2,2q0,11.76,0,23.51c0,1.4.66,2,2,2,1.11,0,2.23,0,3.35,0h65.73c4.2,0,4.23,0,4.24,4.08,0,10.55,0,21.1,0,31.66a13.83,13.83,0,0,0,0,1.44c.21,1.89-.67,2.62-2.5,2.48-.95-.07-1.92,0-2.88,0H2389.53c-3.85,0-3.56.06-3.56-3.72Q2386,1872.78,2386,1833Z" transform="translate(-1370.78 -1749.91)"/><path d="M2357.09,1833.39V1911c0,1.11-.05,2.24,0,3.35.07,1.49-.71,2-2.06,1.93-1.11,0-2.23,0-3.35,0-13.42,0-26.85,0-40.27,0-6.56,0-5.68.71-5.68-5.49q0-62.07,0-124.14,0-16.31,0-32.6c0-4,0-4.07,4.23-4.08h42.18c5.68,0,4.94-.44,4.94,4.78Q2357.11,1794.08,2357.09,1833.39Z" transform="translate(-1370.78 -1749.91)"/><path d="M2090.64,2093.22c25.91,0,51.82,0,77.73,0q85.15.2,170.32.47,66.21.16,132.42.29c12.15,0,24.31.12,36.46.2,4.06,0,4.2.07,4,3.86-.39,6.72,1.44,6.12-6.14,6.11q-56.85-.07-113.71-.2-86.83-.26-173.68-.58-64.29-.18-128.58-.25-43.9-.12-87.8-.32-71.25-.24-142.49-.47c-39-.1-78.05-.09-117.07-.18-22.87,0-45.74-.2-68.61-.31-.8,0-1.6,0-2.39,0-1.42.07-1.86-.59-2-2-.83-7.75-.65-8,7-8q51.11.1,102.2.22,86.84.26,173.67.57,64.55.18,129.07.25h9.59Z" transform="translate(-1370.78 -1749.91)"/><path class="cls-1" d="M2363.42,2050.31c-22.39,0-44.79.28-67.17-.06-56.77-.85-113.54-.23-170.31-1-52.77-.72-105.54-.15-158.3-.94-54.05-.8-108.11-.25-162.15-1-24.62-.33-49.24-.37-73.86-.59-.64,0-1.28,0-1.92,0a3,3,0,0,1-1.42-.14c-2.7-1.66-.89-4.31-1.28-6.48-.25-1.39-.19-3,2-3.1.79,0,1.59,0,2.39,0,36,.1,72-.18,108,.42,42.85.71,85.71.37,128.56.77,10.24.09,20.48-.1,30.71.11,53.56,1.11,107.14.23,160.7,1,53.25.79,106.51.16,159.75,1,40.3.62,80.59.38,120.89.73.64,0,1.28,0,1.91,0,2.29-.19,3.25.88,3.06,3.1a3.85,3.85,0,0,0,0,.48c.46,6.33.46,6.26-5.68,6.25q-37.91,0-75.81,0Z" transform="translate(-1370.78 -1749.91)"/><path d="M2382.94,1993.12c-10.91,0-18.42-5.54-23.31-14.84-6-11.37-3.63-25.91,5.34-35.07a25.39,25.39,0,0,1,35.81-.7,30.64,30.64,0,0,1,2,41.71C2397.46,1990.35,2391.25,1993.13,2382.94,1993.12Z" transform="translate(-1370.78 -1749.91)"/><path d="M2442.13,1993.15c-12.46,0-20-5.53-24.89-14.83-6-11.35-3.68-25.89,5.27-35.07a25.38,25.38,0,0,1,36.16-.44,30.62,30.62,0,0,1,2,41C2455.47,1990,2448.88,1993.42,2442.13,1993.15Z" transform="translate(-1370.78 -1749.91)"/><path d="M2474.06,1964.15q0-11.51,0-23c0-4.18-.33-4.06,3.74-4,5.59,0,11.18,0,16.78,0a38.47,38.47,0,0,1,9.48,1.18,21.65,21.65,0,0,1,13.33,9.45,31.09,31.09,0,0,1-2.61,36.58,20.86,20.86,0,0,1-16,7.47c-7.18.09-14.36-.69-21.54,0-2.61.27-3.28-.83-3.25-3.26C2474.12,1980.43,2474.05,1972.29,2474.06,1964.15Z" transform="translate(-1370.78 -1749.91)"/><path class="cls-1" d="M1747.89,1991.79c-5.46,0-5.46,0-7.25-5.38-.2-.6-.35-1.23-.57-1.83-1.57-4.46-2.21-4.93-6.87-5s-9.27.12-13.9,0c-2.87-.1-4.51,1-5.26,3.75-.5,1.84-1.2,3.63-1.76,5.46-.64,2.09-1.89,3-4.18,3.12-7.78.36-7.77.45-5.21-6.71q8.4-23.43,17.78-46.5c.91-2.23,1.74-3.75,4.44-2.78a4.81,4.81,0,0,0,1.42.18c5.18.08,5.18.08,7.11,5q8.63,22.07,17.23,44.15.53,1.34,1,2.7c1.26,3.72,1.23,3.76-2.53,3.82Z" transform="translate(-1370.78 -1749.91)"/><path class="cls-1" d="M2201.44,1991.77c-5,0-5,0-6.66-4.82-.3-.91-.56-1.84-.88-2.73-1.49-4.06-2.22-4.57-6.68-4.6-4.63,0-9.27.12-13.89,0-2.84-.1-4.6.88-5.32,3.66-.16.61-.47,1.19-.65,1.8-2.29,7.68-1.5,6.82-10,6.78-2.51,0-2.76-.43-1.83-2.92,4.94-13.31,9.49-26.77,15-39.88,1.54-3.67,3-7.38,4.41-11.12.66-1.81,1.63-2.64,3.58-2.12a8.6,8.6,0,0,0,2.36.31c4.79,0,4.81-.07,6.4,4q8.85,22.76,17.68,45.51c.23.6.48,1.19.7,1.79,1.53,4.34,1.53,4.34-3.22,4.35Z" transform="translate(-1370.78 -1749.91)"/><path d="M1940.2,1958.72c0-6.07.06-12.14,0-18.21,0-3.25-.14-3.25,2.86-3.39,7.61-.34,7.65-.34,7.59,7.39-.08,8.31-.26,16.62-.35,24.94a53.73,53.73,0,0,0,.21,7.18c.58,4.57,2.83,6.87,7.38,7.49a43,43,0,0,0,7.18.22c7.13-.23,9.87-2.92,9.94-10,0-6.23-.16-12.46-.26-18.69-.07-5.12,0-10.24-.27-15.34-.12-2.63.94-3.22,3.35-3.23,7.33,0,7.26-.11,7.19,7.27-.09,9.75-.92,19.48-.44,29.24a55.73,55.73,0,0,1-.51,7.16c-.43,5.45-3.48,8.78-8.52,10.39-6.37,2-12.94,2.09-19.47,1.33-12.18-1.4-15-4.64-15.26-17-.11-5.59,0-11.18,0-16.78Z" transform="translate(-1370.78 -1749.91)"/><path class="cls-1" d="M1698.33,1983.38c-.76,8.74-.79,9.07-8.69,8.37-8.17-.72-16.28.19-24.41.09-3.76,0-3.89-.1-3.82-3.71.09-5.11.13-10.21.61-15.32a125.15,125.15,0,0,0,0-20.12c-.29-4.3-.34-8.62-.54-12.93-.08-1.81.68-2.6,2.51-2.6q14.86,0,29.74,0c2,0,3,.85,3.17,2.76.11,1.11.15,2.23.25,3.35.18,1.9-.82,2.6-2.57,2.5s-3.52-.12-5.26-.34a96.75,96.75,0,0,0-13.4-.51c-3.33,0-4.14.92-4.56,4.22-1.21,9.69-.7,10.29,9,10.27,4.16,0,8.32-.12,12.47-.12,3.38,0,3.38,0,3.31,3.58,0,.32,0,.64,0,1-.24,4.12-.5,4.46-4.55,3.85-5.26-.8-10.53-.4-15.8-.41-3.77,0-4.34.72-4.43,4.58a63.24,63.24,0,0,0,.13,7.67c.32,3.21,1.33,4.25,4.53,4.47a51.51,51.51,0,0,0,10.53-.2A65.14,65.14,0,0,1,1698.33,1983.38Z" transform="translate(-1370.78 -1749.91)"/><path class="cls-1" d="M2133.06,1937.16c4.32,0,8.64,0,13,0s4.65.32,4.94,4.5c.27,3.91.07,4.31-3.76,4.06-5.58-.35-11.14-1-16.74-.84-4.19.11-5.15.85-5.2,5-.14,11.48-.76,9.31,8.86,9.46,4.31.06,8.64,0,12.95-.16,2.23-.08,3.35.63,3,3,0,.31,0,.63,0,1-.16,4.89-.36,5.08-5.37,4.4-5.26-.71-10.53-.25-15.8-.31-1.93,0-3.55.72-3.58,3-.06,3.19,0,6.39.11,9.58.12,2.66,1.71,4.05,4.32,4.17a71.2,71.2,0,0,0,10.53-.17c3.34-.33,6.7-.41,10.05-.57,1.57-.07,2.21.44,2,2.27-.78,6.58-.76,6.88-7.6,6.28-8.47-.75-16.91,0-25.37,0-4,0-4-.07-4-4-.15-9.91,1.45-19.77.89-29.69-.32-5.75-.59-11.49-.77-17.24-.11-3.61,0-3.66,3.73-3.71C2123.79,1937.13,2128.43,1937.16,2133.06,1937.16Z" transform="translate(-1370.78 -1749.91)"/><path class="cls-1" d="M1814.6,1967a120.69,120.69,0,0,0,10.92-14.27c1.6-2.49,1-5.28.66-7.94-.92-8-1-7.9,7-7.67,2.19.06,3.24.63,3.17,3-.08,3.19,0,6.38.1,9.57a11.88,11.88,0,0,1-2.14,7.18,153.65,153.65,0,0,1-11.11,15c-2.68,3.21-4.6,6.5-3.58,10.86a6.16,6.16,0,0,1,.06,1.43c0,8.73,1.73,7.65-7.84,7.67-3,0-3.47-.64-3.28-3.82.13-2.22.35-4.45.62-6.66a10.11,10.11,0,0,0-2.51-7.93c-4.3-5.34-8.45-10.8-12.27-16.51a12.07,12.07,0,0,1-2.37-7.57c.15-3.18.08-6.38,0-9.57,0-1.8.71-2.63,2.55-2.59,9.27.23,8.47-1.17,7.61,7.25-.61,5.94,1.41,10.16,5,14.26C1809.5,1961.32,1811.46,1964.25,1814.6,1967Z" transform="translate(-1370.78 -1749.91)"/><path class="cls-1" d="M2267.69,1967.2a119.7,119.7,0,0,0,10.58-13.24,8,8,0,0,0,1.41-5.42c-.17-2.87-.12-5.75-.29-8.62-.12-2.12.82-2.8,2.83-2.75,9.34.22,7.25-1.14,7.93,7.41a22.42,22.42,0,0,1-5.36,16.76c-3.23,4-6.12,8.18-9.35,12.13a10.26,10.26,0,0,0-2.62,7.9c.25,2.53.12,5.1.25,7.65.1,2-.8,2.86-2.82,2.84-9.61-.1-8.31,1-7.83-7.62.29-5.26-.75-9.52-4.32-13.55s-6.65-9-10-13.41a11.22,11.22,0,0,1-2.37-7.57c.14-3.18.12-6.38,0-9.57-.08-2.33.93-3,3.15-3,7.78.22,7.32-1,6.67,6.83a17.54,17.54,0,0,0,4.89,14.36C2262.92,1961,2265.08,1964,2267.69,1967.2Z" transform="translate(-1370.78 -1749.91)"/><path class="cls-2" d="M2316.29,1964.33c-.31-8-.64-16-.93-24-.13-3.32.08-3.69,3.39-3.53,10.08.48,20.13-.2,30.2-.49,3.26-.09,3.26,0,3.6,3.37.61,5.94.61,6-5.31,5.64s-12.14-.39-18.22-.4c-2.51,0-3.45,1-3.37,3.4.09,2.72,0,5.44,0,8.16,0,2,.93,2.84,3,2.77,4.64-.17,9.27-.23,13.91-.32,2.07,0,4.15-.07,6.23-.07.82,0,1.71.21,1.73,1.19a46.65,46.65,0,0,1-.13,6.69c-.18,1.57-1.71,1.11-2.73,1.1-4.8,0-9.59-.12-14.39-.18-1.28,0-2.56,0-3.84,0-3.5.14-3.72.33-3.64,4,.11,5.59.4,11.18.46,16.77,0,3.11-.21,3.22-3.27,3-.48,0-.95-.14-1.43-.17-6.27-.32-6.14-.32-6-6.87.16-6.71,0-13.42,0-20.13Z" transform="translate(-1370.78 -1749.91)"/><path class="cls-2" d="M1993.82,1964.27q-.43-11.74-.89-23.48c-.14-3.83-.06-4.11,3.43-4,9.92.47,19.81-.18,29.71-.48,3.68-.11,3.68,0,4,3.42.61,5.88.61,5.82-5.37,5.61s-11.83-.36-17.74-.36c-3.62,0-3.66.16-3.77,3.87,0,1.92,0,3.84,0,5.76,0,4.56.06,4.64,4.46,4.59,5.75,0,11.51-.17,17.25-.41,2.44-.09,3.29.58,3.19,3.23-.21,5.91,0,5.9-5.87,5.81-4.8-.08-9.59-.17-14.39-.17-4.56,0-4.65.13-4.54,4.53.14,5.11.39,10.22.46,15.33.06,4,0,4.16-4.28,3.75-2-.2-4.61,1.18-6-.47-1.52-1.86-.32-4.58-.34-6.92,0-6.55,0-13.11,0-19.66Z" transform="translate(-1370.78 -1749.91)"/><path class="cls-2" d="M2036,1964.14c-.29-7.8-.56-15.47-.86-23.13-.16-4.16-.17-4.35,3.66-4.17,9.76.47,19.5-.18,29.24-.47,3.88-.12,3.88-.07,4.27,3.67.58,5.61.58,5.55-5.18,5.36-5.91-.2-11.82-.37-17.73-.38-3.88,0-3.91.14-4,4.14,0,1.92,0,3.84,0,5.76.08,4.29.09,4.36,4.25,4.33s8.62-.21,12.94-.31c1.91,0,3.83,0,5.75,0,1.38,0,2,.53,1.95,2-.44,8.14,1.55,7-6.6,6.95-4.63,0-9.27-.15-13.9-.13-4.22,0-4.38.21-4.28,4.31.12,5.43.39,10.86.45,16.29,0,3.36-.08,3.37-3.59,3.14-.63,0-1.27-.13-1.91-.14-5.41-.12-5.4-.12-5.21-5.73C2035.55,1978.39,2035.79,1971.2,2036,1964.14Z" transform="translate(-1370.78 -1749.91)"/><path class="cls-2" d="M1870.05,1992.78c-5.61,0-5.61,0-6.57-4.26-1.32-5.83-1.31-5.84,4.32-5.48a21,21,0,0,0,7.11-.78c2.72-.76,4.92-2.21,5.56-5.3a6.64,6.64,0,0,0-3.19-7.38c-2.53-1.66-5.2-3.09-7.82-4.63-6.31-3.71-8.42-8.15-7.4-15.63.8-5.91,5.16-10.56,11.36-12.16s12-.21,17.71,2.13c1.41.57,2,1.49,1,2.93a2.46,2.46,0,0,0-.23.42c-2.66,5.9-2.68,6-8.67,4a15,15,0,0,0-6.6-.7,5.22,5.22,0,0,0-4.86,4c-.6,2.29-.34,4.49,1.63,6.11a26.56,26.56,0,0,0,3.53,2.42,62,62,0,0,0,5.92,3.13c10.94,4.85,9.45,19,3.42,24.7A24.12,24.12,0,0,1,1870.05,1992.78Z" transform="translate(-1370.78 -1749.91)"/><path class="cls-1" d="M2216.53,1983.07A19.2,19.2,0,0,0,2225,1982c5.62-1.94,6.71-8.48,2-12.1a65,65,0,0,0-8.61-5.16c-5.22-2.83-7.29-7.21-7.14-13,.14-6,2.72-10.47,8-13.18,7.17-3.68,14.27-2.06,21.24.81.72.3,1.64.85,1.34,1.73a24.93,24.93,0,0,1-3.34,6.81c-.73,1-1.8.18-2.65-.09-2.72-.87-5.34-2.08-8.32-2-3.42.15-5.63,1.46-6.4,4-.82,2.68-.07,5.14,2.7,7.06a50.75,50.75,0,0,0,7.92,4.43c11.89,5.31,9.7,19.67,3.51,25.31-5.43,4.94-12,6.34-19.07,6.14-1.6,0-2.73-.71-2.94-2.51a25,25,0,0,0-.65-2.79C2211.43,1982.56,2211.43,1982.56,2216.53,1983.07Z" transform="translate(-1370.78 -1749.91)"/><path class="cls-1" d="M1764.82,1992.81c-4.32,0-4.65-.29-5.45-4.27-1.16-5.82-1.16-5.78,4.58-5.43a17.32,17.32,0,0,0,8.41-1.49c4.78-2.21,5.64-7.23,2-11-2.75-2.79-6.46-4.1-9.69-6.14a13.69,13.69,0,0,1-6.29-7.53c-3.09-9.76,3-19,13.68-20.41,5.21-.68,10.13.79,14.93,2.69,1.53.6,1.87,1.57,1,3-.33.55-.6,1.12-.88,1.7-2.2,4.61-2.21,4.64-7.23,2.91a15.92,15.92,0,0,0-6.58-1c-3.19.25-4.94,1.52-5.79,4.16-.79,2.48,0,4.79,2.47,6.7a20.77,20.77,0,0,0,2.86,1.74,34.58,34.58,0,0,0,5.51,2.9c10.84,3.62,11.09,21.09.57,27.49A27.84,27.84,0,0,1,1764.82,1992.81Z" transform="translate(-1370.78 -1749.91)"/><path class="cls-2" d="M1895.7,1944.8c.68-8.45.67-8.37,8.7-7.83a147.07,147.07,0,0,0,25.87-.31c5.11-.56,5-.72,4.89,4.06,0,1.27,0,2.54,0,4-3.06.87-6.24.22-9.38.21-5.79,0-5-.49-5.07,4.68-.28,12.3-.22,24.61.47,36.91.06,1.11.09,2.23.06,3.35,0,1.36-.78,2-2.15,1.94q-3.36-.06-6.71,0c-1.7,0-2.22-.92-2.16-2.43.08-2.23.12-4.47.26-6.71.71-11.18.62-22.36.36-33.55-.1-4.23-.15-4.19-4.21-4.17C1903,1945,1899.33,1945.46,1895.7,1944.8Z" transform="translate(-1370.78 -1749.91)"/><path class="cls-3" d="M2088.66,1984.48a10.4,10.4,0,0,1-1.31,5.14,37,37,0,0,1-8.31,9.79c-1,.9-2.25,1.39-3.26-.05-.84-1.2-2.85-2.2-1.44-4,2.43-3.12,4-6.41,3.66-10.51-.12-1.34,1.14-1.85,2.18-2.22a19.26,19.26,0,0,1,5.56-1.3C2088.61,1981.18,2088.75,1981.29,2088.66,1984.48Z" transform="translate(-1370.78 -1749.91)"/><path class="cls-4" d="M1459.28,2023.69q0-15.82,0-31.64c0-4,0-4.06,3.77-4.06q21.35,0,42.67.09a47.86,47.86,0,0,1,5.74.41c16.84,2.16,25.39,12.86,28,31.52,1.35,9.83-1.15,19-6.72,27.31a26.58,26.58,0,0,1-18.9,11.81,61.21,61.21,0,0,1-9.06.78c-13.91.08-27.81.05-41.72,0-3.66,0-3.72-.06-3.73-3.65C1459.26,2045.43,1459.28,2034.56,1459.28,2023.69Z" transform="translate(-1370.78 -1749.91)"/><path class="cls-4" d="M1459.28,1870.68q0-14.64,0-29.27c0-4,0-4.08,3.75-4.08q20.39,0,40.78.08a38,38,0,0,1,5.74.37c13.77,2.22,21.3,9.37,23.81,23.18a44.46,44.46,0,0,1-3.41,27.6c-4.75,10-12.7,14.93-23.56,15.16-10.39.22-20.79.1-31.18.13-4.16,0-8.32,0-12.47,0-3.39,0-3.44-.08-3.45-3.42C1459.27,1890.51,1459.28,1880.59,1459.28,1870.68Z" transform="translate(-1370.78 -1749.91)"/><path class="cls-4" d="M1711.23,1801.37c0-4.47.07-8.95,0-13.42,0-1.85.55-2.51,2.44-2.48,8.31.13,16.63.08,24.94.24a20.56,20.56,0,0,1,5.62,1.08c6.2,1.94,9.46,6.3,10,13.17a14,14,0,0,1-7.78,14.22,26.18,26.18,0,0,1-11.55,2.8c-7,.21-14.07.06-21.1.23-2.29.06-2.63-1-2.6-2.89C1711.28,1810,1711.23,1805.69,1711.23,1801.37Z" transform="translate(-1370.78 -1749.91)"/><path class="cls-4" d="M2400.42,1963.28c-.05,10.6-6.07,18.71-14.22,20.36a14.71,14.71,0,0,1-13.67-3.91,21.28,21.28,0,0,1,.12-30.79,15.38,15.38,0,0,1,20.89-.19A19.85,19.85,0,0,1,2400.42,1963.28Z" transform="translate(-1370.78 -1749.91)"/><path class="cls-4" d="M2458,1962.24c.05,11.42-5.87,19.6-14,21.35a14.76,14.76,0,0,1-14.07-4,21.29,21.29,0,0,1-2.41-27.57c6.91-9.59,19.22-9.72,26.33-.26A19.68,19.68,0,0,1,2458,1962.24Z" transform="translate(-1370.78 -1749.91)"/><path class="cls-4" d="M2484,1963.8c0-5.11.07-10.22,0-15.32,0-2.46,1.07-3.56,3.4-3.55a84.13,84.13,0,0,1,10.05.19c9,1.12,15.17,9.16,14.94,19.28a24.13,24.13,0,0,1-2.11,9.75c-2.8,6-7.21,9.64-14,9.84a76,76,0,0,1-8.13,0c-3.61-.28-4-.8-4.08-4.41-.07-5.27,0-10.53,0-15.8Z" transform="translate(-1370.78 -1749.91)"/><path class="cls-5" d="M1726.91,1949.3c2.41,6.18,4.83,12.36,7.21,18.55.81,2.1-.24,3-2.25,3q-5.25.06-10.5,0c-2.2,0-2.8-1.25-2.15-3.15,1.25-3.61,2.56-7.19,3.88-10.77.93-2.53,1.92-5,2.88-7.55Z" transform="translate(-1370.78 -1749.91)"/><path class="cls-5" d="M2180.19,1948.71c2.17,3.51,3,6.88,4.33,10.08,1.18,3,2.31,5.92,3.47,8.89.77,2,.15,3.13-2,3.17-3.66.06-7.32.07-11,0-2,0-2.4-1.31-1.9-3,.6-2,1.29-3.92,2-5.86C2176.71,1957.77,2178.36,1953.51,2180.19,1948.71Z" transform="translate(-1370.78 -1749.91)"/></svg>