<svg id="Capa_1" data-name="Capa 1" xmlns="http://www.w3.org/2000/svg" viewBox="0 0 1167.77 398.41"><defs><style>.cls-1{fill:#a08e81;}.cls-2{fill:#010101;}.cls-3{fill:#050404;}.cls-4{fill:#a29083;}.cls-5{fill:#fff;}</style></defs><path d="M1614.28,2066.26c1.43,1.45,3.27,1.64,4.89,2.24a87.06,87.06,0,0,1,22.28,12c13.52,10.15,22.22,23.64,27.18,39.64a124.12,124.12,0,0,1,5.15,34c.5,20.67-2.29,40.77-9.78,60.13a150.7,150.7,0,0,1-10.24,21.08,60.39,60.39,0,0,1-23,22.54,98.47,98.47,0,0,1-28.68,10.4,182.79,182.79,0,0,1-37.61,3.81q-74.1.06-148.21,0h-2.88c-1.22,0-1.65-.74-1.65-1.85,0-1.44,0-2.88,0-4.32q0-191.82,0-383.63c0-6.55-1-6,5.77-6q76.74,0,153.49,0c12.21,0,24.23,1.39,35.87,5.32a71.73,71.73,0,0,1,37.26,27.94,119.21,119.21,0,0,1,20,50.76c2.62,17.8,1.89,35.36-3.12,52.68a100.08,100.08,0,0,1-8.88,21.14,68.81,68.81,0,0,1-34,30.47C1616.94,2065.17,1615.64,2065.7,1614.28,2066.26Z" transform="translate(-1411.7 -1873.66)"/><path d="M1700.57,1956.75v-78.62c0-4.58-.37-4.37,4.45-4.37h84.39a77.9,77.9,0,0,1,28.62,4.94,50.09,50.09,0,0,1,14.38,8.45c10.07,8.54,15.24,19.46,15.83,32.6a58.86,58.86,0,0,1-3,22.18,36.61,36.61,0,0,1-12.71,17.58,84.81,84.81,0,0,1-11.8,7.3c-1.7.9-1.81,1.2-1.1,3,.77,1.93,1.63,3.82,2.42,5.73q12.39,29.84,24.76,59.68c2.18,5.27,2.46,5.15-3.2,5.15q-23.49,0-47,0c-.8,0-1.6,0-2.4,0a2.58,2.58,0,0,1-2.84-2c-1.74-4.79-3.65-9.53-5.47-14.3q-8.28-21.69-16.53-43.38c-.34-.89-.7-1.78-1-2.69a2,2,0,0,0-2.22-1.41c-.32,0-.64,0-1,0-4.29.18-8.59-.38-12.87.32-1.18,4.2-.47,8.5-.5,12.74-.11,14.86,0,29.72,0,44.58,0,1,0,1.92,0,2.88,0,3.08-.13,3.2-3.25,3.21q-22.3,0-44.6,0a15.18,15.18,0,0,1-1.91,0,1.49,1.49,0,0,1-1.47-1.56c0-1.28,0-2.56,0-3.84v-78.14Z" transform="translate(-1411.7 -1873.66)"/><path d="M2247.91,1977.72c-5.65,8-10.87,15.47-16.16,22.87a6.52,6.52,0,0,0-.89,4.1c0,9,.06,17.9,0,26.85,0,2.82.66,5.71-.55,8.46-2.68.66-5.4.31-8.1.32-11.51,0-23,0-34.53,0-1.28,0-2.56,0-3.83-.08a1.35,1.35,0,0,1-1.26-1.24,27.43,27.43,0,0,1-.08-2.87V1877.94c0-4.27-.18-4.19,4.18-4.18h40.28c.8,0,1.6,0,2.4,0a1.42,1.42,0,0,1,1.49,1.49c0,1.28,0,2.56,0,3.84q0,28.51,0,57c0,1.52.08,3,.14,5.18a14.26,14.26,0,0,0,3.25-4.07q19.83-29.67,39.64-59.36c3.23-4.83,1.61-4.14,7.54-4.16,12,0,24,0,36,0h4.31c.35,1.64-.76,2.49-1.43,3.47q-18.2,26.46-36.43,52.88c-1.07,1.56-2.91,3-2.79,4.87.1,1.63,1.31,3.2,2.08,4.77q23.54,47.65,47.07,95.29c.76,1.55,1.77,3,2,4.71-1.1.89-2.26.57-3.33.57q-24.22,0-48.43,0a7.69,7.69,0,0,0-1,0c-2.11.32-3.12-.78-3.94-2.6-5.84-12.94-11.77-25.84-17.68-38.76q-4.28-9.36-8.58-18.71C2249,1979.57,2248.56,1978.9,2247.91,1977.72Z" transform="translate(-1411.7 -1873.66)"/><path d="M2067,1941.47a14.77,14.77,0,0,0,3.77-4.63c13.14-19.66,26.33-39.29,39.3-59.06,2-3,4-4.19,7.68-4.11,11.83.25,23.66.09,35.5.1,1.55,0,3.11.09,4.59.13.46,1.58-.64,2.28-1.23,3.13q-18.6,27.06-37.26,54.08c-2.47,3.58-2.48,3.59-.52,7.56q23.86,48.3,47.72,96.61c2.6,5.28,3.39,5.06-3.11,5.06h-45.58c-1,0-1.92,0-2.88,0a2.68,2.68,0,0,1-2.89-2c-.33-.9-.77-1.75-1.17-2.63l-24.72-54c-.52-1.13-1.09-2.23-1.55-3.18-1.4-.22-1.64.74-2,1.31-4.63,6.51-9.16,13.09-13.85,19.55a9,9,0,0,0-1.79,5.76c.07,10.07,0,20.14,0,30.22,0,1.11,0,2.23,0,3.35a1.38,1.38,0,0,1-1.41,1.54c-1,.06-1.92.06-2.88.06h-39.82c-.8,0-1.6,0-2.4,0-1.23,0-1.67-.65-1.66-1.79s0-2.56,0-3.84q0-77.7,0-155.4c0-1.12,0-2.24,0-3.35,0-2.07.1-2.16,2.23-2.16q21.83,0,43.65,0c2,0,2.25.24,2.29,2.13s0,3.51,0,5.27v60.29Z" transform="translate(-1411.7 -1873.66)"/><path d="M1873.12,1956.87v-77.7q0-1.92,0-3.84a1.35,1.35,0,0,1,1.41-1.52c1,0,1.92,0,2.88,0H1994c.8,0,1.6,0,2.4,0,1.83.08,2.15.37,2.15,2.33q0,16.79,0,33.57c0,2.15-.31,2.38-2.56,2.45-1.12,0-2.24,0-3.36,0H1929.8c-1,0-1.92,0-2.88,0-3.64,0-3.66,0-3.67,3.7,0,6.08,0,12.15,0,18.23,0,2,.26,2.16,2.24,2.22,1.12,0,2.24,0,3.36,0h49.89c1.28,0,2.56,0,3.84,0a1.38,1.38,0,0,1,1.56,1.41c0,.48,0,1,0,1.44v30.7a15.18,15.18,0,0,1-.06,1.91,1.33,1.33,0,0,1-1.2,1.27c-1.27.11-2.55.12-3.82.12h-50.38c-6.22,0-5.46-.37-5.48,5.31q0,9.83,0,19.66c0,2.24.19,2.36,2.53,2.42,1.12,0,2.24,0,3.35,0h64.29c1.28,0,2.56,0,3.84.08a1.21,1.21,0,0,1,1.24,1.17,17.33,17.33,0,0,1,.07,1.91q0,16.8,0,33.58c0,.48,0,1,0,1.44a1.49,1.49,0,0,1-1.5,1.52,27.63,27.63,0,0,1-2.88.06H1877.59c-1,0-1.92,0-2.88,0s-1.53-.41-1.55-1.41c0-1.28,0-2.56,0-3.83Z" transform="translate(-1411.7 -1873.66)"/><path d="M2551.91,2000.58v35c0,1,0,1.92,0,2.87,0,1.11-.43,1.83-1.65,1.84l-3.84,0q-57.3,0-114.61,0c-5.84,0-5.17.69-5.17-5q0-43.62,0-87.25v-70c0-4.75-.4-4.32,4.4-4.32h116.52a28.71,28.71,0,0,1,3.35.1,1.47,1.47,0,0,1,.89.93,7,7,0,0,1,.12,1.9q0,16.07,0,32.12c0,.32,0,.64,0,1-.09,1.91-.41,2.28-2.18,2.34-1.28,0-2.56,0-3.84,0q-31.87,0-63.77,0c-6.17,0-5.34-.71-5.37,5.31q-.06,8.38,0,16.78c0,1.76.26,2,1.87,2.06,1.28,0,2.56,0,3.84,0h49.39c1.28,0,2.56,0,3.83,0s1.83.39,1.82,1.62c0,.64,0,1.28,0,1.92q0,14.87,0,29.72a23.75,23.75,0,0,1-.09,2.39,1.19,1.19,0,0,1-1.26,1.15c-1.27,0-2.55.07-3.83.07H2481.5c-5.29,0-4.76-.17-4.77,4.55,0,6.87,0,13.74,0,20.61,0,2.05.17,2.17,2.2,2.23,1.28,0,2.56,0,3.84,0h69.13Z" transform="translate(-1411.7 -1873.66)"/><path d="M2397.63,1956.94v78.13c0,5.6.52,5.27-5.05,5.27h-41.24c-1,0-1.92,0-2.88,0-1.62-.09-2-.45-2.08-2,0-.95,0-1.91,0-2.87q0-78.37,0-156.76c0-1.12,0-2.23,0-3.35a1.43,1.43,0,0,1,1.42-1.57c.79-.07,1.59-.06,2.39-.06h43.64l1.91,0c1.12,0,1.83.46,1.85,1.66s0,2.56,0,3.84Z" transform="translate(-1411.7 -1873.66)"/><path d="M2125,2224q-76.76,0-153.52,0c-28.62,0-57.24-.19-85.86-.27q-87.08-.27-174.14-.53c-8.64,0-6.9,1.41-7.1-7.45a3.36,3.36,0,0,1,.09-1.42,1.73,1.73,0,0,1,1-.93,9.27,9.27,0,0,1,2.36-.21q118.48.27,237,.56,42.71.11,85.39.27l239.38.65q42.46.11,84.91.23l188.05.61c4.65,0,4.24-.2,4.19,4.07-.07,6.72,1,5.86-5.76,5.85q-100.76-.18-201.49-.41-43.17-.09-86.35-.25-64-.24-128.08-.55Z" transform="translate(-1411.7 -1873.66)"/><path class="cls-1" d="M1953.69,2175h-91.13c-7.35,0-14.72.15-22.07-.08-23-.72-46-.32-69.06-.52-5,0-4.8.13-4.79-4.68,0-.8,0-1.6,0-2.4.09-2.44.33-2.72,2.84-2.73,6.4,0,12.79,0,19.19,0,51.81.11,103.63-.13,155.44.42,56.29.6,112.57.37,168.86.63,30.7.15,61.41-.12,92.11.3,61.88.83,123.76.37,185.64.71,24.79.13,49.58.1,74.37.2,5.43,0,10.86.27,16.28.45,1.56,0,2,.52,2.11,2,0,.16,0,.32,0,.48-.07,8.39,1.13,7.31-6.9,7.3-38.54,0-77.09.16-115.62-.3-70.84-.85-141.68-.42-212.51-.77-16-.08-32,.15-48-.17C2055.57,2175,2010.64,2175.62,1953.69,2175Z" transform="translate(-1411.7 -1873.66)"/><path class="cls-1" d="M1833.91,2103.71c0-2.89,0-5.44,0-8q-.18-12-.38-23.95c0-1.44,0-2.88.06-4.31a1.5,1.5,0,0,1,1.5-1.54c2.24,0,4.47-.06,6.71,0a1.49,1.49,0,0,1,1.59,1.43c.08.95.11,1.91.1,2.87q-.11,23-.24,46c0,3.83,0,4.5-4.24,4.22a5.7,5.7,0,0,0-1.43,0c-2.52.45-4.15-.62-5.63-2.65-5.67-7.72-11.49-15.33-17.26-23-2.21-2.93-4.4-5.88-6.63-8.79-.78-1-1.63-2-2.5-2.91a1.27,1.27,0,0,0-.83-.27c-.4,0-.56.25-.57.63s-.07,1-.06,1.43q.11,13.65.25,27.31c0,1.91.33,3.82.34,5.73s-.76,2.48-2.68,2.51c-1.76,0-3.52,0-5.27,0s-2.22-.45-2.22-2.35c0-3.19,0-6.4.22-9.58a219.86,219.86,0,0,0,0-34.43c0-.48-.07-1-.07-1.44-.08-6.24-1.14-6.73,5.67-6.83a17.32,17.32,0,0,0,2.35-.43,1.76,1.76,0,0,1,1.69.68c.92,1.11,1.76,2.27,2.62,3.42l23.87,31.8C1831.51,2102.13,1831.94,2103.23,1833.91,2103.71Z" transform="translate(-1411.7 -1873.66)"/><path d="M2097.57,2103.92c.2-8.55,0-16.68-.38-24.82-.18-3.83-.23-7.66-.28-11.5,0-1.2.59-1.81,1.76-1.74,10.1.58,8.74-2.6,8.45,8.31-.36,13.59-.64,27.16-.35,40.75,0,1,0,1.92,0,2.88-.1,2.52-.23,2.64-2.82,2.63a13.76,13.76,0,0,0-2.87,0c-2.62.54-4.08-.79-5.54-2.75q-11-14.8-22.24-29.46c-1.5-2-2.79-4.16-4.8-5.85-1.05,1.13-.66,2.29-.65,3.32.05,9.91.15,19.82.24,29.73,0,1,.06,1.92,0,2.88-.06,1.83-.42,2.15-2.31,2.15H2061c-2.66,0-2.84-.1-2.81-2.57.06-4,.07-8,.34-12a212.83,212.83,0,0,0,.09-25.88c-.19-3.67-.26-7.35-.33-11,0-2.66.06-2.74,2.51-2.95,1.59-.14,3.2-.23,4.77-.5a2.63,2.63,0,0,1,2.91,1.08c.65.92,1.32,1.81,2,2.71q11.94,15.91,23.91,31.81C2095.13,2102.11,2095.63,2103.37,2097.57,2103.92Z" transform="translate(-1411.7 -1873.66)"/><path d="M2444.79,2121.63c-11.05-.14-18.72-5.74-23.43-15.33a30.38,30.38,0,0,1,4.87-33.44c9.85-11,27.77-10.85,37.47-.3,9.94,10.79,10.87,27.56,1.8,39.06C2460.24,2118.28,2453.44,2121.86,2444.79,2121.63Z" transform="translate(-1411.7 -1873.66)"/><path class="cls-1" d="M1787.86,2092.71c.24,9.34-3.19,16.55-9.56,22.61-8.85,8.4-24.87,8.24-34.16-.18-12.22-11.07-13.19-33.56,1.64-45.26a22.26,22.26,0,0,1,13.64-5.12c3-.06,6.06-.2,9,.68,8.43,2.51,13.81,8.31,17.31,16.08A23.48,23.48,0,0,1,1787.86,2092.71Z" transform="translate(-1411.7 -1873.66)"/><path d="M2476.57,2093.55a29.1,29.1,0,0,1,10.33-23.14c8.61-7.66,23.38-7.65,31.9-.51,6.72,5.62,10.49,12.7,10.89,21.55a29.57,29.57,0,0,1-8.32,22.7c-9.66,10.14-27.16,10-36.59-.11A28.76,28.76,0,0,1,2476.57,2093.55Z" transform="translate(-1411.7 -1873.66)"/><path class="cls-1" d="M1696.45,2120.46c-4,0-8,0-12,0-1.79,0-2.3-.49-2.28-2.31,0-4.94,0-9.9.33-14.83a138.46,138.46,0,0,0,0-20.06c-.36-5.08-.28-10.2-.33-15.3,0-1.54.51-2.13,2-2.08,8.75.25,17.54-.83,26.26.85,7.6,1.47,13.18,5.54,16.41,12.55,5.08,11,4.44,21.7-2.53,31.73a20.87,20.87,0,0,1-18.31,9.49c-3.19,0-6.39,0-9.58,0Z" transform="translate(-1411.7 -1873.66)"/><path d="M2030.21,2094.13c.22,5.7.46,12.25.72,18.79,0,1.44.19,2.87.21,4.31,0,3.08-.15,3.23-3.21,3.21-2.08,0-4.16,0-6.23,0a1.24,1.24,0,0,1-1.25-1.19,31,31,0,0,1-.06-3.34c.12-4.63.28-9.27.41-13.9,0-1.12,0-2.24,0-3.35a1.91,1.91,0,0,0-1.75-1.94,13.51,13.51,0,0,0-1.91-.1H1996a15.79,15.79,0,0,0-2.38.18,1.64,1.64,0,0,0-1.45,1.65c-.08,1.27-.07,2.55-.05,3.83.08,5.27.21,10.54.25,15.82,0,2.13-.35,2.38-2.56,2.38s-4.16,0-6.23,0a1.6,1.6,0,0,1-1.76-1.78c0-1.76,0-3.52.14-5.27a315.85,315.85,0,0,0,0-39.76c-.14-2.37-1.13-5.19.24-7,1.53-2,4.49-.3,6.79-.75a10.23,10.23,0,0,1,1.92,0c1,0,1.39.62,1.41,1.52,0,1.12,0,2.24,0,3.35-.09,3.84-.21,7.67-.31,11.5,0,1.12-.06,2.24,0,3.36,0,2,.34,2.27,2.12,2.45.47,0,1,.07,1.43.07,7.2,0,14.39.07,21.58,0,3.79,0,3.82-.17,3.8-3.76s-.14-7.35-.21-11c0-1.92-.1-3.84-.08-5.76,0-1.29.48-1.8,1.73-1.68,2.69.25,5.4-.37,8.07.28,1.35,2.6.37,5.32.34,8C2030.69,2080.5,2030.43,2086.89,2030.21,2094.13Z" transform="translate(-1411.7 -1873.66)"/><path class="cls-1" d="M2255.9,2086.25c0-5.28,0-10.55,0-15.82,0-4.57,0-4.57,4.39-4.57,1.27,0,2.55-.05,3.83,0,1.77.06,2.16.46,2.22,2.38a40.26,40.26,0,0,1-.06,5.27c-1,9.88-.65,19.79-.71,29.69a44.48,44.48,0,0,1-.6,7.62c-.78,4.44-3.49,7-7.37,8.72a23.26,23.26,0,0,1-7,1.58,55.57,55.57,0,0,1-18.59-.78,19.72,19.72,0,0,1-4-1.53,8.36,8.36,0,0,1-4.57-5.27,17.37,17.37,0,0,1-1.06-5.15c0-.63-.1-1.27-.09-1.91.25-12.31-.48-24.59-.79-36.88-.1-3.71,0-3.79,3.67-3.77,7.6,0,6.86-.85,6.77,6.48-.11,8.95.14,17.9-.63,26.83a28.59,28.59,0,0,0,.74,7.61,7,7,0,0,0,6.1,6,36.47,36.47,0,0,0,11.47,0c3.72-.59,5.9-3,6.34-6.8a35,35,0,0,0,.11-3.83q0-7.92,0-15.82Z" transform="translate(-1411.7 -1873.66)"/><path d="M2537.2,2092.87c-.21-4.46-.44-8.93-.61-13.39-.15-3.83-.28-7.66-.34-11.49,0-1.89.31-2.17,2.29-2.14,2.53,0,5.06.17,7.59.27,1.24,2.58.44,5.3.47,7.94.06,4.15-.19,8.3-.2,12.46,0,2.08.45,2.43,2.62,2.41a27.11,27.11,0,0,0,3.82-.23c4-.6,7.25-2.44,9.21-6.1a65.42,65.42,0,0,0,2.9-6c1.1-2.65,2.13-5.34,3-8.07.69-2.21,2.09-2.85,4.27-2.84,7.66,0,6.58.17,4.69,6.51-2.14,7.15-5.53,13.6-11.08,18.71a3.16,3.16,0,0,0-.7,4.24c2.84,5.71,5.54,11.49,9.62,16.5a67,67,0,0,1,4.43,6.24,1.68,1.68,0,0,1-1.59,2.6c-2.39.05-4.79,0-7.19,0a2.82,2.82,0,0,1-2.44-1.23c-.76-1-1.49-2.07-2.15-3.16a129,129,0,0,1-8-14.72,28.71,28.71,0,0,0-1.49-3,3.34,3.34,0,0,0-3.13-1.83c-.32,0-.64,0-1,0-6.2,0-5.88,0-5.74,5.72.12,5.27.24,10.54.29,15.81,0,2.15-.32,2.38-2.55,2.38s-4.47,0-6.7-.06a1.18,1.18,0,0,1-1.23-1.2c-.05-1.43-.06-2.87,0-4.3C2536.4,2107.55,2537.3,2100.24,2537.2,2092.87Z" transform="translate(-1411.7 -1873.66)"/><path d="M2116.27,2093.81c-.24-8.49-.47-16-.67-23.49,0-1.11,0-2.23.05-3.34a1.15,1.15,0,0,1,1.27-1.12c2.55,0,5.11,0,7.66,0a1.19,1.19,0,0,1,1.27,1.14,27.29,27.29,0,0,1,0,2.86c-.1,4.47-.23,8.94-.33,13.41,0,1.27,0,2.55,0,3.83a1.69,1.69,0,0,0,1.79,1.8,23.34,23.34,0,0,0,6.64-.65,11.42,11.42,0,0,0,6.82-4.89,39.13,39.13,0,0,0,3.77-7.72q1.53-4,3-8.07a2.48,2.48,0,0,1,2.48-1.84c.8,0,1.6,0,2.4-.06,5.44,0,5.52.16,4,5.28-2.21,7.64-5.62,14.57-11.56,20a2.85,2.85,0,0,0-.71,3.81c2.8,5.73,5.5,11.5,9.53,16.53a80.91,80.91,0,0,1,4.65,6.66,1.6,1.6,0,0,1-1.27,2.46c-.31,0-.63,0-.95,0-1.92,0-3.84-.1-5.75,0a4,4,0,0,1-3.93-2.12,133.89,133.89,0,0,1-8.7-15.39c-.21-.44-.43-.86-.63-1.29-2.37-5.16-4.8-6.35-10.12-4.92a1.8,1.8,0,0,0-1.45,1.68c-.06,1,0,1.92,0,2.87.15,4.31.34,8.62.47,12.92,0,1.59,0,3.19,0,4.78a1.22,1.22,0,0,1-1.14,1.31q-4.07.09-8.13,0a1.21,1.21,0,0,1-1.15-1.27c-.06-1.27,0-2.55,0-3.82C2115.83,2107.82,2116.07,2100.32,2116.27,2093.81Z" transform="translate(-1411.7 -1873.66)"/><path d="M2410.87,2105.09c6.61,7,6.5,6.7-.66,12.26-8.64,6.71-24.86,6.28-33.1-4.78a28.63,28.63,0,0,1-5.47-12.61c-1.17-7.08-.82-14,2.27-20.63,3.2-6.81,8.08-11.93,15.59-13.8,7.05-1.75,14-1.39,20.34,2.56s6.59,5.76,2.34,11.66a16.24,16.24,0,0,0-.87,1.44c-2.41-1-3.44-2.7-4.92-3.89a14.94,14.94,0,0,0-13-3.22c-5.35,1.11-8.73,4.49-10.69,9.35a24.82,24.82,0,0,0,.06,19.16c3.92,9.66,14.38,12.65,23,6.67C2407.53,2108,2409.17,2106.48,2410.87,2105.09Z" transform="translate(-1411.7 -1873.66)"/><path class="cls-1" d="M2292,2065.63a27.56,27.56,0,0,1,11.62,2.55c1.79.76,2,1.6,1.2,3.38a3.36,3.36,0,0,1-.2.43c-1.05,1.6-1.15,4-2.83,4.88s-3.57-.77-5.38-1.24c-1.23-.31-2.47-.66-3.72-.9a8.08,8.08,0,0,0-4.7.53,5.86,5.86,0,0,0-1.86,9.52,15,15,0,0,0,3.15,2.15c2.5,1.41,5.05,2.75,7.59,4.1,4.71,2.51,6.84,6.62,6.92,11.76a16,16,0,0,1-7.49,14.21,26.28,26.28,0,0,1-16.41,4.25c-1.88-.09-2.5-.66-3-2.46s-.84-3.41-1.24-5.12c-.52-2.26,0-3,2.41-2.5a19.86,19.86,0,0,0,9-.24,12.7,12.7,0,0,0,2.69-1,6.52,6.52,0,0,0,1.21-11.13,27.22,27.22,0,0,0-3.6-2.36c-2.2-1.3-4.48-2.47-6.63-3.85-3.59-2.29-5.74-5.5-5.77-9.89,0-2.39-.21-4.81.66-7.11,2.19-5.79,6.51-8.9,12.52-9.8C2289.46,2065.64,2290.75,2065.69,2292,2065.63Z" transform="translate(-1411.7 -1873.66)"/><path class="cls-1" d="M1876.41,2073.67c.38-2,.77-4.18,1.23-6.34a1.89,1.89,0,0,1,2-1.61c1,0,1.92,0,2.87,0,9.75.33,19.5.36,29.24-.06.8,0,1.6-.07,2.4,0a1.69,1.69,0,0,1,1.86,1.73c.11,6.46,1.34,7.37-6.32,6.67-9.27-.84-7.75-1.28-8,6.81-.11,3-.31,6.06-.43,9.09a32.47,32.47,0,0,0,0,4.3c.75,7.49.48,15,.69,22.51a17.29,17.29,0,0,1-.15,2.38,1.39,1.39,0,0,1-1.27,1.21,2,2,0,0,1-.47.07c-10.06-.38-8.67,2.13-8.7-8.31,0-8,1.15-15.94.75-23.94-.21-4.14-.4-8.29-.64-12.43-.1-1.7-.72-2.25-2.53-1.94a66,66,0,0,1-10,.62A3.21,3.21,0,0,1,1876.41,2073.67Z" transform="translate(-1411.7 -1873.66)"/><path class="cls-1" d="M2308.22,2073.67c.38-2,.77-4.15,1.21-6.31a1.9,1.9,0,0,1,2-1.64c1,0,1.92,0,2.88,0,9.75.33,19.49.36,29.24-.06.63,0,1.27-.07,1.91-.06,1.8,0,2.38.48,2.4,2.2.06,6,1.34,6.91-6.31,6.23-9.38-.84-7.77-1.39-8.09,7.25-.1,2.87-.3,5.73-.42,8.6a31,31,0,0,0,0,4.31c.75,7.49.48,15,.69,22.5a15.9,15.9,0,0,1-.15,2.39,1.36,1.36,0,0,1-1.24,1.23,2,2,0,0,1-.47.08c-10.08-.38-8.69,2.13-8.73-8.28,0-7.83,1.16-15.61.75-23.45-.22-4.31-.4-8.61-.64-12.91-.1-1.71-.72-2.29-2.49-2a66.12,66.12,0,0,1-10,.63A3.27,3.27,0,0,1,2308.22,2073.67Z" transform="translate(-1411.7 -1873.66)"/><path class="cls-2" d="M1937.56,2074.28a6.13,6.13,0,0,1-.11-1.3c.5-2.3,1-4.6,1.56-6.9,2.33-1,4.73-.3,7.08-.2,9.11.36,18.22.24,27.32-.24a11.94,11.94,0,0,1,2.39,0,1.85,1.85,0,0,1,1,.84c.16.22.08.62.08.94-.11,7.61,1.86,7-6.58,6.64-1.75-.08-3.51-.22-5.27-.27-2.12-.06-2.36.19-2.48,2.48-.06,1.11-.06,2.23-.08,3.35-.24,11.51-.16,23,.45,34.52.1,1.88.85,4.08-.34,5.6s-3.57.41-5.4.64a24,24,0,0,1-2.4.1c-2.42,0-2.65-.22-2.62-2.84,0-1.91.13-3.83.23-5.74.57-11.51.59-23,.28-34.52,0-.64,0-1.28-.07-1.92-.12-1.29-.55-1.7-1.81-1.62-1.92.12-3.82.38-5.74.45C1942.66,2074.34,1940.28,2074.28,1937.56,2074.28Z" transform="translate(-1411.7 -1873.66)"/><path class="cls-1" d="M2203.19,2091.18c-.06-6.68.28-13.39-.66-20,0-.32,0-.64-.05-1-.11-4,.3-4.54,4.21-4.32.48,0,1,0,1.43,0,5.91-.1,5.87-.56,5.39,5.76-.84,11-.5,22-.64,33a36.06,36.06,0,0,1-2.07,11.7,20.94,20.94,0,0,1-6.53,9.27,1.69,1.69,0,0,1-2.53-.12c-.56-.56-1.13-1.12-1.68-1.7-1.07-1.16-2.69-2.19-3.06-3.55-.46-1.67,1.72-2.39,2.69-3.57a14.44,14.44,0,0,0,3.48-9.2C2203.23,2102,2203.19,2096.6,2203.19,2091.18Z" transform="translate(-1411.7 -1873.66)"/><path class="cls-2" d="M2049.35,2092.88c.17,7.61.34,14.94.5,22.28,0,1.27.05,2.55,0,3.82a1.38,1.38,0,0,1-1.49,1.47,28.54,28.54,0,0,1-3.34-.1c-1.84-.2-4.15,1-5.43-.59s-.38-3.7-.33-5.58c.13-4.31.41-8.61.61-12.91a262.77,262.77,0,0,0-.53-26.77c-.15-2.67-.49-5.38.14-8.05,2.72-1.38,5.61-.2,8.41-.58,1.54-.2,1.92.3,1.94,1.93,0,1.91,0,3.83,0,5.74C2049.64,2080.08,2049.49,2086.62,2049.35,2092.88Z" transform="translate(-1411.7 -1873.66)"/><path class="cls-3" d="M2174,2112.23a14.83,14.83,0,0,1-3.8,9.56c-2,2.24-3.85,4.68-6.36,6.43a1.77,1.77,0,0,1-2.55-.14c-.33-.34-.66-.69-1-1-1.43-1.65-1.54-2-.23-3.65,2-2.59,3.44-5.32,3-8.74-.21-1.71.79-2.69,2.27-3.21a21.8,21.8,0,0,1,6.48-1.47C2173.53,2109.89,2174.11,2110.51,2174,2112.23Z" transform="translate(-1411.7 -1873.66)"/><path class="cls-4" d="M1850,2075c-.17-1.66.3-2.47,1.21-3a109.52,109.52,0,0,0,11.68-7.46c1.1-.78,2-.54,3,.16,4.26,2.85,4.32,3.24-.1,6a75.22,75.22,0,0,1-11,5.86,16.17,16.17,0,0,1-2.25.78,1.86,1.86,0,0,1-2.5-1.51A4.61,4.61,0,0,1,1850,2075Z" transform="translate(-1411.7 -1873.66)"/><path class="cls-5" d="M1500.43,2148.25q0-15.59,0-31.17c0-1.27,0-2.55.1-3.82a1.24,1.24,0,0,1,1.23-1.2c1-.07,1.92,0,2.88,0h37.41a63.77,63.77,0,0,1,15.68,1.71c7.7,1.93,13.56,6.19,17.29,13.28,7.84,14.9,8,29.61-1.13,44.07a25.89,25.89,0,0,1-16.44,11.53,35.94,35.94,0,0,1-8.53,1.17q-23,0-46,0h-.48c-1.62-.07-1.94-.34-2-2,0-9.27,0-18.54,0-27.81Z" transform="translate(-1411.7 -1873.66)"/><path class="cls-5" d="M1500.43,1994.49v-27.78c0-1.28,0-2.55,0-3.83s.68-1.66,1.8-1.63c.48,0,1,0,1.44,0l40.72,0a40.27,40.27,0,0,1,12.24,1.89c8,2.54,13.58,7.7,16.18,15.68,4,12.41,3.26,24.49-3.08,36.09-4.18,7.64-10.74,11.54-19.2,12.52a67.35,67.35,0,0,1-7.65.39c-12.94,0-25.87,0-38.8,0-.8,0-1.6,0-2.39-.08a1.17,1.17,0,0,1-1.2-1.21c0-1.27-.07-2.55-.08-3.83Z" transform="translate(-1411.7 -1873.66)"/><path class="cls-5" d="M1751.85,1925c0-4.46,0-8.92,0-13.38,0-2.06.24-2.35,2-2.34q12.43,0,24.86.13a19.91,19.91,0,0,1,4.71.73c8.69,2.15,11.67,8.15,11.42,15.86-.19,5.78-3,9.91-8.25,12.41a26.4,26.4,0,0,1-11.08,2.6c-7.17.12-14.34.09-21.52.07-1.93,0-2.16-.24-2.18-2.21C1751.82,1934.25,1751.85,1929.63,1751.85,1925Z" transform="translate(-1411.7 -1873.66)"/><path class="cls-5" d="M2462.27,2093a20.3,20.3,0,0,1-5.89,14.67,15.57,15.57,0,0,1-22.94-.37,21.05,21.05,0,0,1-.11-28.29,15.6,15.6,0,0,1,23.28-.3A20.45,20.45,0,0,1,2462.27,2093Z" transform="translate(-1411.7 -1873.66)"/><path class="cls-5" d="M1778.35,2093.59c.25,5.52-2,10.36-6.2,14.56-5.81,5.8-15.93,5.73-22-.35-7.65-7.72-8.53-22.83,1.92-31,6.42-5,16.05-3.91,21.49,2.67C1777.11,2083.7,1778.5,2087.41,1778.35,2093.59Z" transform="translate(-1411.7 -1873.66)"/><path class="cls-5" d="M2520.24,2093.73a19.25,19.25,0,0,1-5.38,13.54c-6.62,7.18-17.11,7-23.67-.26-6.92-7.64-6.91-20.76.59-28.39a15.61,15.61,0,0,1,22.35-.4C2518.1,2082,2520.18,2087,2520.24,2093.73Z" transform="translate(-1411.7 -1873.66)"/><path class="cls-5" d="M1700.28,2073.41a45,45,0,0,1,6.17.52c7.92,1.74,12.32,7,13.7,14.75a22.42,22.42,0,0,1-3.65,17.29,13.72,13.72,0,0,1-9.75,6.19,47.83,47.83,0,0,1-11,.36c-2.61-.23-3.22-1-3.56-3.59a30.33,30.33,0,0,1-.24-3.81q0-12,0-23.89c0-1.59.27-3.17.36-4.76.11-2,1.3-2.79,3.13-2.88,1.59-.07,3.19,0,4.78,0Z" transform="translate(-1411.7 -1873.66)"/></svg>